<svg width="24" height="24" viewBox="0 0 24 24" fill="none" xmlns="http://www.w3.org/2000/svg">
<g clip-path="url(#clip0_1536_135)">
<path d="M10.4998 2C9.14436 2.00012 7.80863 2.32436 6.60402 2.94569C5.39941 3.56702 4.36086 4.46742 3.575 5.57175C2.78914 6.67609 2.27878 7.95235 2.08647 9.29404C1.89417 10.6357 2.02551 12.004 2.46954 13.2846C2.91357 14.5652 3.65741 15.7211 4.639 16.6557C5.62059 17.5904 6.81147 18.2768 8.11228 18.6576C9.41309 19.0384 10.7861 19.1026 12.1168 18.8449C13.4475 18.5872 14.6972 18.015 15.7618 17.176L19.4138 20.828C19.506 20.9235 19.6164 20.9997 19.7384 21.0521C19.8604 21.1045 19.9916 21.1321 20.1244 21.1333C20.2571 21.1344 20.3888 21.1091 20.5117 21.0588C20.6346 21.0085 20.7463 20.9343 20.8402 20.8404C20.9341 20.7465 21.0083 20.6348 21.0586 20.512C21.1089 20.3891 21.1342 20.2574 21.133 20.1246C21.1319 19.9918 21.1043 19.8606 21.0519 19.7386C20.9995 19.6166 20.9233 19.5062 20.8278 19.414L17.1758 15.762C18.1638 14.5086 18.7789 13.0024 18.9509 11.4157C19.1228 9.82905 18.8446 8.22602 18.148 6.79009C17.4514 5.35417 16.3647 4.14336 15.0121 3.29623C13.6595 2.44911 12.0957 1.99989 10.4998 2V2Z" fill="black"/>
</g>
<defs>
<clipPath id="clip0_1536_135">
<rect width="24" height="24" fill="white"/>
</clipPath>
</defs>
</svg>
